<mxfile host="app.diagrams.net" modified="2023-07-22T19:11:14.075Z" agent="Mozilla/5.0 (Windows NT 10.0; Win64; x64) AppleWebKit/537.36 (KHTML, like Gecko) Chrome/114.0.0.0 Safari/537.36" etag="s-tSA9xF2bPKQPVV-G4r" version="21.6.3" type="github">
  <diagram name="Page-1" id="DBpeTQGeHFwcLLt9vRpl">
    <mxGraphModel dx="1290" dy="541" grid="1" gridSize="10" guides="1" tooltips="1" connect="1" arrows="1" fold="1" page="1" pageScale="1" pageWidth="850" pageHeight="1100" math="0" shadow="0">
      <root>
        <mxCell id="0" />
        <mxCell id="1" parent="0" />
        <mxCell id="23MB7j66s_yPWRO4-Ci1-6" style="edgeStyle=orthogonalEdgeStyle;rounded=0;orthogonalLoop=1;jettySize=auto;html=1;entryX=0.5;entryY=0;entryDx=0;entryDy=0;" parent="1" source="23MB7j66s_yPWRO4-Ci1-1" target="23MB7j66s_yPWRO4-Ci1-2" edge="1">
          <mxGeometry relative="1" as="geometry" />
        </mxCell>
        <mxCell id="23MB7j66s_yPWRO4-Ci1-1" value="start" style="ellipse;whiteSpace=wrap;html=1;" parent="1" vertex="1">
          <mxGeometry x="260" y="60" width="120" height="80" as="geometry" />
        </mxCell>
        <mxCell id="23MB7j66s_yPWRO4-Ci1-7" style="edgeStyle=orthogonalEdgeStyle;rounded=0;orthogonalLoop=1;jettySize=auto;html=1;" parent="1" source="23MB7j66s_yPWRO4-Ci1-2" target="23MB7j66s_yPWRO4-Ci1-5" edge="1">
          <mxGeometry relative="1" as="geometry" />
        </mxCell>
        <mxCell id="23MB7j66s_yPWRO4-Ci1-2" value="&quot;michael&quot;" style="shape=document;whiteSpace=wrap;html=1;boundedLbl=1;" parent="1" vertex="1">
          <mxGeometry x="260" y="200" width="120" height="80" as="geometry" />
        </mxCell>
        <mxCell id="23MB7j66s_yPWRO4-Ci1-5" value="end" style="rounded=1;whiteSpace=wrap;html=1;" parent="1" vertex="1">
          <mxGeometry x="260" y="350" width="120" height="60" as="geometry" />
        </mxCell>
      </root>
    </mxGraphModel>
  </diagram>
</mxfile>
